ffmpeg started on 2025-05-28 at 10:20:59
Report written to "D:\Convert\FFMetrics\reports\psnr_report-6.txt"
Log level: 32
Command line:
ffmpeg -hide_banner -nostdin -i "G:\\\xc0\xed\xe8\xec\xe5\\\xce\xed\xe3\xee\xe8\xed\xe3\xe8\\!_36_\xce\xf1\xe5\xed\xfc_2024\\JamClub\\MF \xcf\xf0\xe8\xe7\xf0\xe0\xea\\\xd2\xc2-1\\[JAMCLUB] MF Ghost - 04 (1080p)_HEVC.mkv" -i "G:\\\xc0\xed\xe8\xec\xe5\\\xce\xed\xe3\xee\xe8\xed\xe3\xe8\\!_36_\xce\xf1\xe5\xed\xfc_2024\\JamClub\\MF \xcf\xf0\xe8\xe7\xf0\xe0\xea\\\xd2\xc2-1\\[JAMCLUB] MF Ghost - 04 (1080p).mp4" -lavfi "[0:v]settb=AVTB,setpts=PTS-STARTPTS,format=pix_fmts=yuv420p10,fps=24000/1001,scale=1920:1080:flags=bicubic[main];[1:v]settb=AVTB,setpts=PTS-STARTPTS,format=pix_fmts=yuv420p,fps=24000/1001,scale=1920:1080:flags=bicubic[ref];[main][ref]psnr=eof_action=endall:stats_file='D\\:/Convert/FFMetrics/logs/psnr_logfile-6.txt'" -f null -
Input #0, matroska,webm, from 'G:\Аниме\Онгоинги\!_36_Осень_2024\JamClub\MF Призрак\ТВ-1\[JAMCLUB] MF Ghost - 04 (1080p)_HEVC.mkv':
  Metadata:
    COMPATIBLE_BRANDS: isomiso2avc1mp41
    MAJOR_BRAND     : isom
    MINOR_VERSION   : 512
    ENCODER         : Lavf61.7.100
  Duration: 00:24:02.35, start: -0.021000, bitrate: 1572 kb/s
  Stream #0:0: Video: hevc (Main 10), yuv420p10le(tv, bt709, progressive), 1920x1080 [SAR 1:1 DAR 16:9], 23.98 fps, 23.98 tbr, 1k tbn (default)
      Metadata:
        HANDLER_NAME    : VideoHandler
        VENDOR_ID       : [0][0][0][0]
        ENCODER         : Lavc61.19.100 libx265
        BPS             : 1373252
        DURATION        : 00:24:02.232708333
        NUMBER_OF_FRAMES: 34579
        NUMBER_OF_BYTES : 247568566
        _STATISTICS_WRITING_APP: mkvpropedit v66.0.0 ('Josie') 64-bit
        _STATISTICS_WRITING_DATE_UTC: 2025-05-27 08:11:01
        _STATISTICS_TAGS: BPS DURATION NUMBER_OF_FRAMES NUMBER_OF_BYTES
  Stream #0:1: Audio: aac (LC), 48000 Hz, stereo, fltp (default)
      Metadata:
        HANDLER_NAME    : SoundHandler
        VENDOR_ID       : [0][0][0][0]
        ENCODER         : Lavc61.19.100 aac
        BPS             : 195349
        DURATION        : 00:24:02.325000000
        NUMBER_OF_FRAMES: 67610
        NUMBER_OF_BYTES : 35219717
        _STATISTICS_WRITING_APP: mkvpropedit v66.0.0 ('Josie') 64-bit
        _STATISTICS_WRITING_DATE_UTC: 2025-05-27 08:11:01
        _STATISTICS_TAGS: BPS DURATION NUMBER_OF_FRAMES NUMBER_OF_BYTES
Input #1, mov,mp4,m4a,3gp,3g2,mj2, from 'G:\Аниме\Онгоинги\!_36_Осень_2024\JamClub\MF Призрак\ТВ-1\[JAMCLUB] MF Ghost - 04 (1080p).mp4':
  Metadata:
    major_brand     : isom
    minor_version   : 512
    compatible_brands: isomiso2avc1mp41
    encoder         : Lavf60.10.100
  Duration: 00:24:02.33, start: 0.000000, bitrate: 5257 kb/s
  Stream #1:0[0x1](und): Video: h264 (High) (avc1 / 0x31637661), yuv420p(tv, bt709, progressive), 1920x1080 [SAR 1:1 DAR 16:9], 4996 kb/s, 23.98 fps, 23.98 tbr, 24k tbn (default)
      Metadata:
        handler_name    : VideoHandler
        vendor_id       : [0][0][0][0]
        encoder         : Lavc60.23.100 h264_nvenc
  Stream #1:1[0x2](und): Audio: aac (LC) (mp4a / 0x6134706D), 48000 Hz, stereo, fltp, 255 kb/s (default)
      Metadata:
        handler_name    : SoundHandler
        vendor_id       : [0][0][0][0]
Stream mapping:
  Stream #0:0 (hevc) -> settb:default
  Stream #1:0 (h264) -> settb:default
  psnr:default -> Stream #0:0 (wrapped_avframe)
  Stream #0:1 -> #0:1 (aac (native) -> pcm_s16le (native))
Output #0, null, to 'pipe:':
  Metadata:
    COMPATIBLE_BRANDS: isomiso2avc1mp41
    MAJOR_BRAND     : isom
    MINOR_VERSION   : 512
    encoder         : Lavf61.7.100
  Stream #0:0: Video: wrapped_avframe, yuv420p10le(tv, bt709, progressive), 1920x1080 [SAR 1:1 DAR 16:9], q=2-31, 200 kb/s, 23.98 fps, 23.98 tbn
      Metadata:
        encoder         : Lavc61.19.100 wrapped_avframe
  Stream #0:1: Audio: pcm_s16le, 48000 Hz, stereo, s16, 1536 kb/s (default)
      Metadata:
        HANDLER_NAME    : SoundHandler
        VENDOR_ID       : [0][0][0][0]
        _STATISTICS_TAGS: BPS DURATION NUMBER_OF_FRAMES NUMBER_OF_BYTES
        BPS             : 195349
        DURATION        : 00:24:02.325000000
        NUMBER_OF_FRAMES: 67610
        NUMBER_OF_BYTES : 35219717
        _STATISTICS_WRITING_APP: mkvpropedit v66.0.0 ('Josie') 64-bit
        _STATISTICS_WRITING_DATE_UTC: 2025-05-27 08:11:01
        encoder         : Lavc61.19.100 pcm_s16le
frame=  117 fps=0.0 q=-0.0 size=N/A time=00:00:04.87 bitrate=N/A speed=9.52x    frame=  284 fps=278 q=-0.0 size=N/A time=00:00:11.84 bitrate=N/A speed=11.6x    frame=  490 fps=318 q=-0.0 size=N/A time=00:00:20.43 bitrate=N/A speed=13.2x    frame=  699 fps=341 q=-0.0 size=N/A time=00:00:29.15 bitrate=N/A speed=14.2x    frame=  963 fps=374 q=-0.0 size=N/A time=00:00:40.16 bitrate=N/A speed=15.6x    frame= 1217 fps=393 q=-0.0 size=N/A time=00:00:50.75 bitrate=N/A speed=16.4x    frame= 1493 fps=414 q=-0.0 size=N/A time=00:01:02.27 bitrate=N/A speed=17.3x    frame= 1756 fps=427 q=-0.0 size=N/A time=00:01:13.23 bitrate=N/A speed=17.8x    frame= 2031 fps=438 q=-0.0 size=N/A time=00:01:24.70 bitrate=N/A speed=18.3x    frame= 2304 fps=447 q=-0.0 size=N/A time=00:01:36.09 bitrate=N/A speed=18.6x    frame= 2571 fps=454 q=-0.0 size=N/A time=00:01:47.23 bitrate=N/A speed=18.9x    frame= 2849 fps=460 q=-0.0 size=N/A time=00:01:58.82 bitrate=N/A speed=19.2x    frame= 3112 fps=465 q=-0.0 size=N/A time=00:02:09.79 bitrate=N/A speed=19.4x    frame= 3384 fps=469 q=-0.0 size=N/A time=00:02:21.14 bitrate=N/A speed=19.6x    frame= 3655 fps=473 q=-0.0 size=N/A time=00:02:32.44 bitrate=N/A speed=19.7x    frame= 3928 fps=476 q=-0.0 size=N/A time=00:02:43.83 bitrate=N/A speed=19.9x    frame= 4059 fps=463 q=-0.0 size=N/A time=00:02:49.29 bitrate=N/A speed=19.3x    frame= 4209 fps=454 q=-0.0 size=N/A time=00:02:55.55 bitrate=N/A speed=18.9x    frame= 4405 fps=450 q=-0.0 size=N/A time=00:03:03.72 bitrate=N/A speed=18.8x    frame= 4591 fps=446 q=-0.0 size=N/A time=00:03:11.48 bitrate=N/A speed=18.6x    frame= 4744 fps=438 q=-0.0 size=N/A time=00:03:17.86 bitrate=N/A speed=18.3x    frame= 4880 fps=431 q=-0.0 size=N/A time=00:03:23.53 bitrate=N/A speed=  18x    frame= 5074 fps=428 q=-0.0 size=N/A time=00:03:31.62 bitrate=N/A speed=17.9x    frame= 5239 fps=424 q=-0.0 size=N/A time=00:03:38.50 bitrate=N/A speed=17.7x    frame= 5387 fps=418 q=-0.0 size=N/A time=00:03:44.68 bitrate=N/A speed=17.4x    frame= 5539 fps=413 q=-0.0 size=N/A time=00:03:51.02 bitrate=N/A speed=17.2x    frame= 5676 fps=408 q=-0.0 size=N/A time=00:03:56.73 bitrate=N/A speed=  17x    frame= 5834 fps=404 q=-0.0 size=N/A time=00:04:03.32 bitrate=N/A speed=16.9x    frame= 5993 fps=401 q=-0.0 size=N/A time=00:04:09.95 bitrate=N/A speed=16.7x    frame= 6180 fps=400 q=-0.0 size=N/A time=00:04:17.75 bitrate=N/A speed=16.7x    frame= 6395 fps=400 q=-0.0 size=N/A time=00:04:26.72 bitrate=N/A speed=16.7x    frame= 6633 fps=402 q=-0.0 size=N/A time=00:04:36.65 bitrate=N/A speed=16.8x    frame= 6869 fps=404 q=-0.0 size=N/A time=00:04:46.49 bitrate=N/A speed=16.8x    frame= 7106 fps=406 q=-0.0 size=N/A time=00:04:56.37 bitrate=N/A speed=16.9x    frame= 7373 fps=409 q=-0.0 size=N/A time=00:05:07.51 bitrate=N/A speed=  17x    frame= 7615 fps=410 q=-0.0 size=N/A time=00:05:17.60 bitrate=N/A speed=17.1x    frame= 7901 fps=414 q=-0.0 size=N/A time=00:05:29.53 bitrate=N/A speed=17.3x    frame= 8081 fps=413 q=-0.0 size=N/A time=00:05:37.04 bitrate=N/A speed=17.2x    frame= 8287 fps=412 q=-0.0 size=N/A time=00:05:45.63 bitrate=N/A speed=17.2x    frame= 8546 fps=414 q=-0.0 size=N/A time=00:05:56.43 bitrate=N/A speed=17.3x    frame= 8800 fps=416 q=-0.0 size=N/A time=00:06:07.03 bitrate=N/A speed=17.4x    frame= 9012 fps=416 q=-0.0 size=N/A time=00:06:15.87 bitrate=N/A speed=17.4x    frame= 9281 fps=419 q=-0.0 size=N/A time=00:06:27.09 bitrate=N/A speed=17.5x    frame= 9542 fps=421 q=-0.0 size=N/A time=00:06:37.98 bitrate=N/A speed=17.5x    frame= 9809 fps=423 q=-0.0 size=N/A time=00:06:49.11 bitrate=N/A speed=17.6x    frame=10066 fps=425 q=-0.0 size=N/A time=00:06:59.83 bitrate=N/A speed=17.7x    frame=10314 fps=426 q=-0.0 size=N/A time=00:07:10.17 bitrate=N/A speed=17.8x    frame=10542 fps=426 q=-0.0 size=N/A time=00:07:19.68 bitrate=N/A speed=17.8x    frame=10775 fps=426 q=-0.0 size=N/A time=00:07:29.40 bitrate=N/A speed=17.8x    frame=11011 fps=427 q=-0.0 size=N/A time=00:07:39.25 bitrate=N/A speed=17.8x    frame=11282 fps=429 q=-0.0 size=N/A time=00:07:50.55 bitrate=N/A speed=17.9x    frame=11519 fps=430 q=-0.0 size=N/A time=00:08:00.43 bitrate=N/A speed=17.9x    frame=11752 fps=430 q=-0.0 size=N/A time=00:08:10.15 bitrate=N/A speed=17.9x    frame=12031 fps=432 q=-0.0 size=N/A time=00:08:21.79 bitrate=N/A speed=  18x    frame=12301 fps=434 q=-0.0 size=N/A time=00:08:33.05 bitrate=N/A speed=18.1x    frame=12582 fps=436 q=-0.0 size=N/A time=00:08:44.77 bitrate=N/A speed=18.2x    frame=12841 fps=437 q=-0.0 size=N/A time=00:08:55.57 bitrate=N/A speed=18.2x    frame=13125 fps=439 q=-0.0 size=N/A time=00:09:07.42 bitrate=N/A speed=18.3x    frame=13383 fps=440 q=-0.0 size=N/A time=00:09:18.18 bitrate=N/A speed=18.4x    frame=13641 fps=441 q=-0.0 size=N/A time=00:09:28.94 bitrate=N/A speed=18.4x    frame=13888 fps=442 q=-0.0 size=N/A time=00:09:39.24 bitrate=N/A speed=18.4x    frame=14164 fps=443 q=-0.0 size=N/A time=00:09:50.75 bitrate=N/A speed=18.5x    frame=14407 fps=444 q=-0.0 size=N/A time=00:10:00.89 bitrate=N/A speed=18.5x    frame=14657 fps=444 q=-0.0 size=N/A time=00:10:11.31 bitrate=N/A speed=18.5x    frame=14881 fps=444 q=-0.0 size=N/A time=00:10:20.66 bitrate=N/A speed=18.5x    frame=15092 fps=444 q=-0.0 size=N/A time=00:10:29.46 bitrate=N/A speed=18.5x    frame=15341 fps=444 q=-0.0 size=N/A time=00:10:39.84 bitrate=N/A speed=18.5x    frame=15601 fps=445 q=-0.0 size=N/A time=00:10:50.69 bitrate=N/A speed=18.6x    frame=15846 fps=445 q=-0.0 size=N/A time=00:11:00.91 bitrate=N/A speed=18.6x    frame=16113 fps=446 q=-0.0 size=N/A time=00:11:12.04 bitrate=N/A speed=18.6x    frame=16404 fps=448 q=-0.0 size=N/A time=00:11:24.18 bitrate=N/A speed=18.7x    frame=16678 fps=449 q=-0.0 size=N/A time=00:11:35.61 bitrate=N/A speed=18.7x    frame=16957 fps=450 q=-0.0 size=N/A time=00:11:47.24 bitrate=N/A speed=18.8x    frame=17207 fps=451 q=-0.0 size=N/A time=00:11:57.67 bitrate=N/A speed=18.8x    frame=17490 fps=452 q=-0.0 size=N/A time=00:12:09.47 bitrate=N/A speed=18.9x    frame=17751 fps=453 q=-0.0 size=N/A time=00:12:20.36 bitrate=N/A speed=18.9x    frame=18009 fps=453 q=-0.0 size=N/A time=00:12:31.12 bitrate=N/A speed=18.9x    frame=18263 fps=454 q=-0.0 size=N/A time=00:12:41.71 bitrate=N/A speed=18.9x    frame=18517 fps=454 q=-0.0 size=N/A time=00:12:52.31 bitrate=N/A speed=  19x    frame=18776 fps=455 q=-0.0 size=N/A time=00:13:03.11 bitrate=N/A speed=  19x    frame=19030 fps=456 q=-0.0 size=N/A time=00:13:13.70 bitrate=N/A speed=  19x    frame=19276 fps=456 q=-0.0 size=N/A time=00:13:23.96 bitrate=N/A speed=  19x    frame=19482 fps=455 q=-0.0 size=N/A time=00:13:32.56 bitrate=N/A speed=  19x    frame=19740 fps=455 q=-0.0 size=N/A time=00:13:43.32 bitrate=N/A speed=  19x    frame=20001 fps=456 q=-0.0 size=N/A time=00:13:54.20 bitrate=N/A speed=  19x    frame=20230 fps=456 q=-0.0 size=N/A time=00:14:03.75 bitrate=N/A speed=  19x    frame=20427 fps=455 q=-0.0 size=N/A time=00:14:11.97 bitrate=N/A speed=  19x    frame=20653 fps=455 q=-0.0 size=N/A time=00:14:21.40 bitrate=N/A speed=  19x    frame=20879 fps=455 q=-0.0 size=N/A time=00:14:30.82 bitrate=N/A speed=  19x    frame=21151 fps=455 q=-0.0 size=N/A time=00:14:42.17 bitrate=N/A speed=  19x    frame=21436 fps=456 q=-0.0 size=N/A time=00:14:54.05 bitrate=N/A speed=  19x    frame=21686 fps=457 q=-0.0 size=N/A time=00:15:04.48 bitrate=N/A speed=  19x    frame=21951 fps=457 q=-0.0 size=N/A time=00:15:15.53 bitrate=N/A speed=19.1x    frame=22201 fps=458 q=-0.0 size=N/A time=00:15:25.96 bitrate=N/A speed=19.1x    frame=22417 fps=457 q=-0.0 size=N/A time=00:15:34.97 bitrate=N/A speed=19.1x    frame=22640 fps=457 q=-0.0 size=N/A time=00:15:44.27 bitrate=N/A speed=19.1x    frame=22863 fps=457 q=-0.0 size=N/A time=00:15:53.57 bitrate=N/A speed=19.1x    frame=23126 fps=457 q=-0.0 size=N/A time=00:16:04.54 bitrate=N/A speed=19.1x    frame=23378 fps=458 q=-0.0 size=N/A time=00:16:15.05 bitrate=N/A speed=19.1x    frame=23627 fps=458 q=-0.0 size=N/A time=00:16:25.44 bitrate=N/A speed=19.1x    frame=23819 fps=457 q=-0.0 size=N/A time=00:16:33.45 bitrate=N/A speed=19.1x    frame=24070 fps=457 q=-0.0 size=N/A time=00:16:43.91 bitrate=N/A speed=19.1x    frame=24323 fps=458 q=-0.0 size=N/A time=00:16:54.47 bitrate=N/A speed=19.1x    frame=24561 fps=458 q=-0.0 size=N/A time=00:17:04.39 bitrate=N/A speed=19.1x    frame=24827 fps=458 q=-0.0 size=N/A time=00:17:15.49 bitrate=N/A speed=19.1x    frame=25111 fps=459 q=-0.0 size=N/A time=00:17:27.33 bitrate=N/A speed=19.1x    frame=25383 fps=460 q=-0.0 size=N/A time=00:17:38.68 bitrate=N/A speed=19.2x    frame=25647 fps=460 q=-0.0 size=N/A time=00:17:49.69 bitrate=N/A speed=19.2x    frame=25876 fps=460 q=-0.0 size=N/A time=00:17:59.24 bitrate=N/A speed=19.2x    frame=26141 fps=461 q=-0.0 size=N/A time=00:18:10.29 bitrate=N/A speed=19.2x    frame=26395 fps=461 q=-0.0 size=N/A time=00:18:20.89 bitrate=N/A speed=19.2x    frame=26642 fps=461 q=-0.0 size=N/A time=00:18:31.19 bitrate=N/A speed=19.2x    frame=26826 fps=460 q=-0.0 size=N/A time=00:18:38.86 bitrate=N/A speed=19.2x    frame=27004 fps=459 q=-0.0 size=N/A time=00:18:46.29 bitrate=N/A speed=19.1x    frame=27212 fps=459 q=-0.0 size=N/A time=00:18:54.96 bitrate=N/A speed=19.1x    frame=27465 fps=459 q=-0.0 size=N/A time=00:19:05.51 bitrate=N/A speed=19.1x    frame=27685 fps=459 q=-0.0 size=N/A time=00:19:14.69 bitrate=N/A speed=19.1x    frame=27847 fps=457 q=-0.0 size=N/A time=00:19:21.45 bitrate=N/A speed=19.1x    frame=28048 fps=457 q=-0.0 size=N/A time=00:19:29.83 bitrate=N/A speed=19.1x    frame=28231 fps=456 q=-0.0 size=N/A time=00:19:37.46 bitrate=N/A speed=  19x    frame=28434 fps=455 q=-0.0 size=N/A time=00:19:45.93 bitrate=N/A speed=  19x    frame=28672 fps=455 q=-0.0 size=N/A time=00:19:55.86 bitrate=N/A speed=  19x    frame=28902 fps=455 q=-0.0 size=N/A time=00:20:05.45 bitrate=N/A speed=  19x    frame=29125 fps=455 q=-0.0 size=N/A time=00:20:14.75 bitrate=N/A speed=  19x    frame=29349 fps=455 q=-0.0 size=N/A time=00:20:24.09 bitrate=N/A speed=  19x    frame=29562 fps=455 q=-0.0 size=N/A time=00:20:32.98 bitrate=N/A speed=  19x    frame=29781 fps=454 q=-0.0 size=N/A time=00:20:42.11 bitrate=N/A speed=  19x    frame=29972 fps=454 q=-0.0 size=N/A time=00:20:50.08 bitrate=N/A speed=18.9x    frame=30170 fps=453 q=-0.0 size=N/A time=00:20:58.34 bitrate=N/A speed=18.9x    frame=30357 fps=453 q=-0.0 size=N/A time=00:21:06.13 bitrate=N/A speed=18.9x    frame=30562 fps=452 q=-0.0 size=N/A time=00:21:14.69 bitrate=N/A speed=18.9x    frame=30764 fps=452 q=-0.0 size=N/A time=00:21:23.11 bitrate=N/A speed=18.8x    frame=30951 fps=451 q=-0.0 size=N/A time=00:21:30.91 bitrate=N/A speed=18.8x    frame=31180 fps=451 q=-0.0 size=N/A time=00:21:40.46 bitrate=N/A speed=18.8x    frame=31446 fps=452 q=-0.0 size=N/A time=00:21:51.56 bitrate=N/A speed=18.8x    frame=31636 fps=451 q=-0.0 size=N/A time=00:21:59.48 bitrate=N/A speed=18.8x    frame=31877 fps=451 q=-0.0 size=N/A time=00:22:09.53 bitrate=N/A speed=18.8x    frame=32108 fps=451 q=-0.0 size=N/A time=00:22:19.17 bitrate=N/A speed=18.8x    frame=32349 fps=451 q=-0.0 size=N/A time=00:22:29.22 bitrate=N/A speed=18.8x    frame=32542 fps=451 q=-0.0 size=N/A time=00:22:37.27 bitrate=N/A speed=18.8x    frame=32787 fps=451 q=-0.0 size=N/A time=00:22:47.49 bitrate=N/A speed=18.8x    frame=33008 fps=451 q=-0.0 size=N/A time=00:22:56.70 bitrate=N/A speed=18.8x    frame=33238 fps=450 q=-0.0 size=N/A time=00:23:06.30 bitrate=N/A speed=18.8x    frame=33457 fps=450 q=-0.0 size=N/A time=00:23:15.43 bitrate=N/A speed=18.8x    frame=33676 fps=450 q=-0.0 size=N/A time=00:23:24.56 bitrate=N/A speed=18.8x    frame=33898 fps=450 q=-0.0 size=N/A time=00:23:33.82 bitrate=N/A speed=18.8x    frame=34105 fps=450 q=-0.0 size=N/A time=00:23:42.46 bitrate=N/A speed=18.8x    frame=34317 fps=449 q=-0.0 size=N/A time=00:23:51.30 bitrate=N/A speed=18.7x    frame=34516 fps=449 q=-0.0 size=N/A time=00:23:59.60 bitrate=N/A speed=18.7x    [Parsed_psnr_10 @ 000002369f0268c0] PSNR y:47.756707 u:50.053706 v:49.978716 average:48.387580 min:38.150039 max:inf
[out#0/null @ 000002369e05f140] video:14858KiB audio:270440KiB subtitle:0KiB other streams:0KiB global headers:0KiB muxing overhead: unknown
frame=34579 fps=449 q=-0.0 Lsize=N/A time=00:24:02.23 bitrate=N/A speed=18.7x    
